<?xml version="1.0" encoding="iso-8859-1"?>
<!-- Uploaded to: SVG Repo, www.svgrepo.com, Generator: SVG Repo Mixer Tools -->
<svg fill="#000000" height="800px" width="800px" version="1.1" id="Layer_1" xmlns="http://www.w3.org/2000/svg" xmlns:xlink="http://www.w3.org/1999/xlink" 
	 viewBox="0 0 512 512" xml:space="preserve">
<g>
	<g>
		<path d="M378.033,295.606v-22.813c0-7.852-5.601-14.419-13.017-15.92c-2.675-12.423-11.626-22.541-23.362-26.848l19.276-171.31
			c0.906-8.006-1.654-16.046-7.023-22.058c-5.377-6.018-13.089-9.47-21.159-9.47c-9.182,0-18.271-3.194-25.595-8.998
			C292.121,6.29,274.029,0,254.832,0c-19.189,0-37.277,6.29-52.31,18.191c-7.322,5.801-16.415,8.995-25.603,8.995
			c-15.639,0-28.363,12.704-28.363,28.32c0,1.064,0.062,2.143,0.18,3.203l19.388,172.225c-10.634,4.716-18.636,14.314-21.14,25.937
			c-7.416,1.501-13.017,8.069-13.017,15.92v22.813c0,8.958,7.288,16.245,16.245,16.245h0.924c-2.581,8.222-5.81,20.418-7.737,34.808
			c-0.593,4.429,2.516,8.5,6.946,9.094c0.365,0.049,0.727,0.072,1.085,0.072c3.991,0,7.464-2.954,8.009-7.018
			c2.211-16.501,6.351-30.042,8.748-36.956h26.683c-9.152,21.044-25.821,66.425-19.952,106.671
			c3.261,22.368,2.684,41.424,1.34,54.72h-10.743c6.556-11.544,10.371-30.64-0.715-60.821c-4.15-11.298-6.446-23.92-6.823-37.516
			c-0.122-4.391-3.719-7.867-8.084-7.867c-0.076,0-0.152,0.001-0.229,0.003c-4.467,0.124-7.988,3.845-7.864,8.312
			c0.426,15.351,3.053,29.699,7.809,42.647c15.938,43.389-4.918,55.159-6.517,55.985c-0.114,0.049-0.214,0.114-0.325,0.167
			c-0.061,0.032-0.124,0.061-0.184,0.095c-2.159,1.103-3.554,3.063-4.008,5.396c-0.009,0.039-0.016,0.078-0.024,0.118
			c-0.036,0.197-0.069,0.394-0.091,0.596c-0.038,0.319-0.064,0.642-0.064,0.971c0,0.001,0,0.002,0,0.003v22.576
			c0,4.469,3.622,8.091,8.091,8.091h32.222c3.482,0,6.573-2.228,7.675-5.53c0.504-1.508,12.236-37.546,4.546-90.282
			c-3.728-25.564,3.114-54.42,10.408-75.975h109.339c7.292,21.537,14.124,50.371,10.389,75.975
			c-7.69,52.736,4.043,88.773,4.547,90.283c1.102,3.303,4.193,5.53,7.675,5.53h32.222c4.47,0,8.091-3.623,8.091-8.091
			c0,0-0.12-23.949-0.155-24.147c-0.008-0.04-0.016-0.079-0.024-0.118c-0.453-2.335-1.849-4.295-4.008-5.396
			c-0.06-0.033-0.123-0.064-0.184-0.095c-0.11-0.053-0.21-0.119-0.325-0.167c-1.599-0.826-22.455-12.597-6.517-55.985
			c15.235-41.472,4.904-85.859-1.502-106.15h0.9C370.745,311.852,378.033,304.564,378.033,295.606z M172.531,495.817h-17.952v-6.392
			h19.325C173.423,491.919,172.95,494.074,172.531,495.817z M164.818,56.897c-0.053-0.462-0.079-0.93-0.079-1.391
			c0-6.692,5.463-12.137,12.18-12.137c12.822,0,25.483-4.437,35.65-12.493c12.143-9.612,26.756-14.694,42.262-14.694
			c15.514,0,30.132,5.081,42.273,14.693c10.169,8.057,22.826,12.495,35.642,12.495c3.518,0,6.746,1.445,9.089,4.068
			c2.337,2.616,3.407,5.976,3.012,9.463L325.62,227.785h-16.284l12.002-106.669c0.5-4.44-2.695-8.445-7.135-8.946
			c-4.446-0.495-8.445,2.695-8.946,7.137l-7.553,67.13h-85.734L199.187,72.887c12.16-3.146,23.608-8.822,33.47-16.635
			c6.368-5.04,14.036-7.705,22.174-7.705c8.147,0,15.815,2.661,22.173,7.695c9.868,7.818,21.32,13.496,33.474,16.642l-2.452,21.796
			c-0.5,4.44,2.695,8.445,7.135,8.946c4.451,0.495,8.445-2.696,8.946-7.137l3.271-29.074c0.48-4.267-2.456-8.166-6.691-8.882
			c-12.253-2.074-23.886-7.252-33.637-14.978c-9.248-7.322-20.389-11.192-32.22-11.192c-11.823,0-22.963,3.873-32.221,11.202
			c-9.743,7.719-21.374,12.895-33.634,14.969c-4.234,0.716-7.171,4.615-6.691,8.883l18.052,160.364h-16.284L164.818,56.897z
			 M295.883,202.617l-2.832,25.166h-76.426l-2.833-25.166H295.883z M183.01,243.966c0,0,147.822-0.12,148.719,0
			c0.063,0.009,0.123,0.216,0.187,0.223c0.057,0.006,0.114,0.005,0.172,0.011c7.18,1.084,13.161,5.872,15.927,12.349h-184.03
			C167.14,249.158,174.481,243.966,183.01,243.966z M207.362,324.029c2.091-5.147,3.954-9.316,5.287-12.179h86.706
			c1.336,2.863,3.202,7.031,5.295,12.179H207.362z M337.081,418.523c5.87-40.247-10.8-85.629-19.952-106.671h26.684
			c5.131,14.805,18.255,60.097,3.388,100.57c-11.086,30.181-7.27,49.277-0.715,60.821h-10.743
			C334.304,459.122,333.897,440.363,337.081,418.523z M357.422,489.425v6.392h-17.956c-0.419-1.746-0.892-3.888-1.374-6.392H357.422
			z M150.15,295.606l0.063-22.876h211.576l0.063,0.063l-0.063,22.876L150.15,295.606z"/>
	</g>
</g>
</svg>